<svg xmlns="http://www.w3.org/2000/svg" fill="none" viewBox="0 0 39 24">
  <defs>
    <linearGradient id="logo_a" x1="24.122" x2="17.648" y1="-6.927" y2="18.674" gradientUnits="userSpaceOnUse">
      <stop offset="0" stop-color="#35f787"/>
      <stop offset="0.323" stop-color="#3cff8b"/>
      <stop offset="0.599" stop-color="#62d6f4"/>
      <stop offset="0.948" stop-color="#00a3ff"/>
    </linearGradient>
    <radialGradient id="logo_b" cx="0" cy="0" r="1" gradientTransform="rotate(147.318 14.741 8.348) scale(30.7093 46.5304)" gradientUnits="userSpaceOnUse">
      <stop offset="0" stop-color="#8ff087"/>
      <stop offset="1" stop-color="#83ee41" stop-opacity="0"/>
    </radialGradient>
    <radialGradient id="logo_c" cx="0" cy="0" r="1" gradientTransform="rotate(22.318 5.347 27.143) scale(27.4778 31.0212)" gradientUnits="userSpaceOnUse">
      <stop offset="0.005" stop-color="#75f3ac"/>
      <stop offset="1" stop-color="#41eeba" stop-opacity="0"/>
    </radialGradient>
    <radialGradient id="logo_d" cx="0" cy="0" r="1" gradientTransform="matrix(-21.1947 17.3761 -28.709 -35.01815 32.901 6.627)" gradientUnits="userSpaceOnUse">
      <stop offset="0" stop-color="#6aff52"/>
      <stop offset="1" stop-color="#00fff0" stop-opacity="0"/>
    </radialGradient>
  </defs>
  <g fill-rule="evenodd" clip-rule="evenodd">
    <path fill="#fff" d="M25.882 7.551c-1.19 1.19-1.775 1.776-2.517 1.776-.741 0-1.327-.595-2.517-1.776l-5.775-5.775C13.883.596 13.287 0 12.555 0s-1.326.595-2.517 1.776L2.331 9.483C1.151 10.673.555 11.268.555 12s.596 1.327 1.776 2.517l7.707 7.707c1.19 1.19 1.776 1.776 2.517 1.776.742 0 1.327-.595 2.518-1.776l5.775-5.775c1.19-1.19 1.776-1.776 2.517-1.776.732 0 1.327.595 2.517 1.776l1.747 1.746c1.19 1.19 1.775 1.776 2.517 1.776.741 0 1.327-.595 2.517-1.776l3.678-3.678c1.19-1.19 1.775-1.776 1.775-2.517s-.595-1.327-1.775-2.517l-3.678-3.678c-1.19-1.19-1.776-1.776-2.517-1.776-.742 0-1.327.595-2.517 1.776z"/>
    <path fill="url(#logo_a)" d="M25.882 7.551c-1.19 1.19-1.775 1.776-2.517 1.776-.741 0-1.327-.595-2.517-1.776l-5.775-5.775C13.883.596 13.287 0 12.555 0s-1.326.595-2.517 1.776L2.331 9.483C1.151 10.673.555 11.268.555 12s.596 1.327 1.776 2.517l7.707 7.707c1.19 1.19 1.776 1.776 2.517 1.776.742 0 1.327-.595 2.518-1.776l5.775-5.775c1.19-1.19 1.776-1.776 2.517-1.776.732 0 1.327.595 2.517 1.776l1.747 1.746c1.19 1.19 1.775 1.776 2.517 1.776.741 0 1.327-.595 2.517-1.776l3.678-3.678c1.19-1.19 1.775-1.776 1.775-2.517s-.595-1.327-1.775-2.517l-3.678-3.678c-1.19-1.19-1.776-1.776-2.517-1.776-.742 0-1.327.595-2.517 1.776z"/>
    <g fill-opacity="0.8">
      <path fill="url(#logo_b)" d="M25.882 7.551c-1.19 1.19-1.775 1.776-2.517 1.776-.741 0-1.327-.595-2.517-1.776l-5.775-5.775C13.883.596 13.287 0 12.555 0s-1.326.595-2.517 1.776L2.331 9.483C1.151 10.673.555 11.268.555 12s.596 1.327 1.776 2.517l7.707 7.707c1.19 1.19 1.776 1.776 2.517 1.776.742 0 1.327-.595 2.518-1.776l5.775-5.775c1.19-1.19 1.776-1.776 2.517-1.776.732 0 1.327.595 2.517 1.776l1.747 1.746c1.19 1.19 1.775 1.776 2.517 1.776.741 0 1.327-.595 2.517-1.776l3.678-3.678c1.19-1.19 1.775-1.776 1.775-2.517s-.595-1.327-1.775-2.517l-3.678-3.678c-1.19-1.19-1.776-1.776-2.517-1.776-.742 0-1.327.595-2.517 1.776z"/>
      <path fill="url(#logo_c)" d="M25.882 7.551c-1.19 1.19-1.775 1.776-2.517 1.776-.741 0-1.327-.595-2.517-1.776l-5.775-5.775C13.883.596 13.287 0 12.555 0s-1.326.595-2.517 1.776L2.331 9.483C1.151 10.673.555 11.268.555 12s.596 1.327 1.776 2.517l7.707 7.707c1.19 1.19 1.776 1.776 2.517 1.776.742 0 1.327-.595 2.518-1.776l5.775-5.775c1.19-1.19 1.776-1.776 2.517-1.776.732 0 1.327.595 2.517 1.776l1.747 1.746c1.19 1.19 1.775 1.776 2.517 1.776.741 0 1.327-.595 2.517-1.776l3.678-3.678c1.19-1.19 1.775-1.776 1.775-2.517s-.595-1.327-1.775-2.517l-3.678-3.678c-1.19-1.19-1.776-1.776-2.517-1.776-.742 0-1.327.595-2.517 1.776z"/>
      <path fill="url(#logo_d)" d="M25.882 7.551c-1.19 1.19-1.775 1.776-2.517 1.776-.741 0-1.327-.595-2.517-1.776l-5.775-5.775C13.883.596 13.287 0 12.555 0s-1.326.595-2.517 1.776L2.331 9.483C1.151 10.673.555 11.268.555 12s.596 1.327 1.776 2.517l7.707 7.707c1.19 1.19 1.776 1.776 2.517 1.776.742 0 1.327-.595 2.518-1.776l5.775-5.775c1.19-1.19 1.776-1.776 2.517-1.776.732 0 1.327.595 2.517 1.776l1.747 1.746c1.19 1.19 1.775 1.776 2.517 1.776.741 0 1.327-.595 2.517-1.776l3.678-3.678c1.19-1.19 1.775-1.776 1.775-2.517s-.595-1.327-1.775-2.517l-3.678-3.678c-1.19-1.19-1.776-1.776-2.517-1.776-.742 0-1.327.595-2.517 1.776z"/>
    </g>
  </g>
</svg>
